<svg width="12" height="10" viewBox="0 0 12 10" fill="none" xmlns="http://www.w3.org/2000/svg">
<path d="M12.0004 5.00011C12.0004 5.13272 11.9477 5.2599 11.8539 5.35367C11.7602 5.44744 11.633 5.50011 11.5004 5.50011H1.70727L5.35414 9.14636C5.4006 9.19282 5.43745 9.24797 5.46259 9.30867C5.48773 9.36936 5.50067 9.43442 5.50067 9.50011C5.50067 9.56581 5.48773 9.63087 5.46259 9.69156C5.43745 9.75226 5.4006 9.80741 5.35414 9.85386C5.30769 9.90032 5.25254 9.93717 5.19184 9.96231C5.13115 9.98745 5.06609 10.0004 5.00039 10.0004C4.9347 10.0004 4.86964 9.98745 4.80895 9.96231C4.74825 9.93717 4.6931 9.90032 4.64664 9.85386L0.146643 5.35386C0.100155 5.30743 0.0632756 5.25228 0.0381135 5.19158C0.0129513 5.13089 0 5.06582 0 5.00011C0 4.93441 0.0129513 4.86934 0.0381135 4.80864C0.0632756 4.74794 0.100155 4.6928 0.146643 4.64636L4.64664 0.146364C4.74046 0.0525436 4.86771 -0.000164033 5.00039 -0.000164032C5.13308 -0.000164031 5.26032 0.0525436 5.35414 0.146364C5.44796 0.240184 5.50067 0.367432 5.50067 0.500114C5.50067 0.632796 5.44796 0.760044 5.35414 0.853864L1.70727 4.50011H11.5004C11.633 4.50011 11.7602 4.55279 11.8539 4.64656C11.9477 4.74033 12.0004 4.86751 12.0004 5.00011Z" fill="#E58A2E"/>
</svg>
