<svg width="16" height="16" viewBox="0 0 16 16" fill="none" xmlns="http://www.w3.org/2000/svg">
<path d="M7.99998 11.9998C7.11165 12.4148 5.94469 12.6665 4.66665 12.6665C3.95603 12.6665 3.27977 12.5887 2.66665 12.4482C2.27251 12.358 2.07544 12.3128 1.8393 12.126C1.70462 12.0194 1.53653 11.8084 1.46273 11.6534C1.33331 11.3815 1.33331 11.1178 1.33331 10.5905V3.40914C1.33331 2.75259 2.02667 2.30165 2.66665 2.44823C3.27977 2.58866 3.95603 2.66649 4.66665 2.66649C5.94469 2.66649 7.11165 2.41473 7.99998 1.99983C8.88831 1.58492 10.0552 1.33316 11.3333 1.33316C12.0439 1.33316 12.7202 1.41099 13.3333 1.55143C13.7274 1.6417 13.9245 1.68683 14.1606 1.87369C14.2953 1.98025 14.4634 2.19119 14.5372 2.34627C14.6666 2.61817 14.6666 2.88182 14.6666 3.40914V10.5905C14.6666 11.2471 13.9733 11.698 13.3333 11.5514C12.7202 11.411 12.0439 11.3332 11.3333 11.3332C10.0552 11.3332 8.88831 11.5849 7.99998 11.9998Z" stroke="#9C3B04" stroke-width="1.06667"/>
<path d="M1.33331 13.9998C2.22167 14.4148 3.3886 14.6665 4.66665 14.6665C5.94469 14.6665 7.11165 14.4148 7.99998 13.9998C8.88831 13.5849 10.0552 13.3332 11.3333 13.3332C12.6114 13.3332 13.7783 13.5849 14.6666 13.9998" stroke="#9C3B04" stroke-width="1.06667" stroke-linecap="round"/>
<path d="M9.66665 6.99983C9.66665 7.92029 8.92045 8.66649 7.99998 8.66649C7.07951 8.66649 6.33331 7.92029 6.33331 6.99983C6.33331 6.07935 7.07951 5.33316 7.99998 5.33316C8.92045 5.33316 9.66665 6.07935 9.66665 6.99983Z" stroke="#9C3B04" stroke-width="1.06667"/>
<path d="M3.66663 7.66602V7.67402" stroke="#9C3B04" stroke-width="1.33333" stroke-linecap="round" stroke-linejoin="round"/>
<path d="M12.3333 6.32828V6.33626" stroke="#9C3B04" stroke-width="1.33333" stroke-linecap="round" stroke-linejoin="round"/>
</svg>
