<svg width="16" height="16" viewBox="0 0 16 16" fill="none" xmlns="http://www.w3.org/2000/svg">
<path d="M1.33337 7.99935C1.33337 5.64103 1.33337 4.46186 2.03524 3.67462C2.1475 3.5487 2.27123 3.43225 2.40501 3.3266C3.24146 2.66602 4.49432 2.66602 7.00004 2.66602H9.00004C11.5058 2.66602 12.7586 2.66602 13.595 3.3266C13.7288 3.43225 13.8526 3.5487 13.9648 3.67462C14.6667 4.46186 14.6667 5.64103 14.6667 7.99935C14.6667 10.3577 14.6667 11.5368 13.9648 12.3241C13.8526 12.45 13.7288 12.5664 13.595 12.6721C12.7586 13.3327 11.5058 13.3327 9.00004 13.3327H7.00004C4.49432 13.3327 3.24146 13.3327 2.40501 12.6721C2.27123 12.5664 2.1475 12.45 2.03524 12.3241C1.33337 11.5368 1.33337 10.3577 1.33337 7.99935Z" stroke="#607085" stroke-width="1.06667" stroke-linecap="round" stroke-linejoin="round"/>
<path d="M6.66663 10.666H7.66663" stroke="#607085" stroke-width="1.06667" stroke-miterlimit="10" stroke-linecap="round" stroke-linejoin="round"/>
<path d="M9.66663 10.666H12" stroke="#607085" stroke-width="1.06667" stroke-miterlimit="10" stroke-linecap="round" stroke-linejoin="round"/>
<path d="M1.33331 5.99985H14.6666" stroke="#607085" stroke-width="1.06667" stroke-linejoin="round"/>
</svg>
