<svg width="22" height="22" viewBox="0 0 22 22" fill="none" xmlns="http://www.w3.org/2000/svg">
<path d="M18.2188 4.36323H15.0125V3.78198C15.0125 3.23995 14.7972 2.72011 14.4139 2.33683C14.0307 1.95356 13.5108 1.73823 12.9688 1.73823H9.03128C8.48924 1.73823 7.96941 1.95356 7.58613 2.33683C7.20285 2.72011 6.98753 3.23995 6.98753 3.78198V4.36323H3.78128C3.58734 4.36323 3.40134 4.44027 3.26421 4.57741C3.12707 4.71455 3.05003 4.90054 3.05003 5.09448C3.05003 5.28842 3.12707 5.47442 3.26421 5.61155C3.40134 5.74869 3.58734 5.82573 3.78128 5.82573H4.36253V17.5632C4.36253 17.9312 4.50871 18.2841 4.76892 18.5443C5.02913 18.8045 5.38204 18.9507 5.75003 18.9507H16.25C16.618 18.9507 16.9709 18.8045 17.2311 18.5443C17.4913 18.2841 17.6375 17.9312 17.6375 17.5632V5.82573H18.2188C18.4127 5.82573 18.5987 5.74869 18.7359 5.61155C18.873 5.47442 18.95 5.28842 18.95 5.09448C18.95 4.90054 18.873 4.71455 18.7359 4.57741C18.5987 4.44027 18.4127 4.36323 18.2188 4.36323ZM8.45003 3.78198C8.45003 3.62783 8.51127 3.47998 8.62027 3.37098C8.72928 3.26197 8.87712 3.20073 9.03128 3.20073H12.9688C13.1229 3.20073 13.2708 3.26197 13.3798 3.37098C13.4888 3.47998 13.55 3.62782 13.55 3.78198V4.36323H8.45003V3.78198ZM16.175 17.4882H5.82503V5.82573H16.175V17.4882ZM9.76253 14.282V9.03198C9.76253 8.83804 9.68549 8.65205 9.54835 8.51491C9.41122 8.37777 9.22522 8.30073 9.03128 8.30073C8.83734 8.30073 8.65134 8.37777 8.51421 8.51491C8.37707 8.65205 8.30003 8.83804 8.30003 9.03198V14.282C8.30003 14.4759 8.37707 14.6619 8.51421 14.7991C8.65134 14.9362 8.83734 15.0132 9.03128 15.0132C9.22522 15.0132 9.41122 14.9362 9.54835 14.7991C9.68549 14.6619 9.76253 14.4759 9.76253 14.282ZM13.7 14.282V9.03198C13.7 8.83804 13.623 8.65205 13.4859 8.51491C13.3487 8.37777 13.1627 8.30073 12.9688 8.30073C12.7748 8.30073 12.5888 8.37777 12.4517 8.51491C12.3146 8.65205 12.2375 8.83804 12.2375 9.03198V14.282C12.2375 14.4759 12.3146 14.6619 12.4517 14.7991C12.5888 14.9362 12.7748 15.0132 12.9688 15.0132C13.1627 15.0132 13.3487 14.9362 13.4859 14.7991C13.623 14.6619 13.7 14.4759 13.7 14.282Z" fill="#BD5454" stroke="#BD5454" stroke-width="0.15"/>
</svg>
