<svg width="22" height="22" viewBox="0 0 22 22" fill="none" xmlns="http://www.w3.org/2000/svg">
<path d="M19.432 7.94945L19.5013 7.97815C19.4315 8.14651 19.3293 8.29948 19.2004 8.42832L10.1409 17.4878H18.2188C18.4127 17.4878 18.5987 17.5648 18.7359 17.702C18.873 17.8391 18.95 18.0251 18.95 18.219C18.95 18.413 18.873 18.599 18.7359 18.7361C18.5987 18.8733 18.4127 18.9503 18.2188 18.9503H4.43754C4.06955 18.9503 3.71663 18.8041 3.45643 18.5439C3.19622 18.2837 3.05004 17.9308 3.05004 17.5628V13.8969V13.8968H3.12504C3.12449 13.7244 3.15821 13.5536 3.22426 13.3943C3.29031 13.235 3.38736 13.0905 3.50976 12.969L19.432 7.94945ZM19.432 7.94945L19.5013 7.97815C19.571 7.80979 19.6069 7.62934 19.6069 7.44711C19.6069 7.26487 19.571 7.08442 19.5013 6.91606L19.432 6.94477L19.5013 6.91606C19.4315 6.7477 19.3293 6.59473 19.2004 6.46588L15.5344 2.80074L19.432 7.94945ZM3.45694 12.9158C3.4569 12.9158 3.45685 12.9159 3.4568 12.9159L13.625 2.85377L13.572 2.80073L13.572 2.80074L3.45694 12.9158ZM15.2162 10.344L8.07245 17.4878H4.51254V13.9279L11.6563 6.78413L15.2162 10.344ZM16.25 9.3102L12.6909 5.7503L14.5536 3.88761L18.1127 7.44751L16.25 9.3102Z" fill="#607085" stroke="#607085" stroke-width="0.15"/>
</svg>
