<svg width="25" height="24" viewBox="0 0 25 24" fill="none" xmlns="http://www.w3.org/2000/svg">
<path d="M4.5 8.25H7.59375C7.75898 8.89531 8.13428 9.46728 8.66048 9.87573C9.18669 10.2842 9.83387 10.5059 10.5 10.5059C11.1661 10.5059 11.8133 10.2842 12.3395 9.87573C12.8657 9.46728 13.241 8.89531 13.4062 8.25H21C21.1989 8.25 21.3897 8.17098 21.5303 8.03033C21.671 7.88968 21.75 7.69891 21.75 7.5C21.75 7.30109 21.671 7.11032 21.5303 6.96967C21.3897 6.82902 21.1989 6.75 21 6.75H13.4062C13.241 6.10469 12.8657 5.53272 12.3395 5.12427C11.8133 4.71582 11.1661 4.49412 10.5 4.49412C9.83387 4.49412 9.18669 4.71582 8.66048 5.12427C8.13428 5.53272 7.75898 6.10469 7.59375 6.75H4.5C4.30109 6.75 4.11032 6.82902 3.96967 6.96967C3.82902 7.11032 3.75 7.30109 3.75 7.5C3.75 7.69891 3.82902 7.88968 3.96967 8.03033C4.11032 8.17098 4.30109 8.25 4.5 8.25ZM10.5 6C10.7967 6 11.0867 6.08797 11.3334 6.2528C11.58 6.41762 11.7723 6.65189 11.8858 6.92598C11.9994 7.20006 12.0291 7.50166 11.9712 7.79264C11.9133 8.08361 11.7704 8.35088 11.5607 8.56066C11.3509 8.77044 11.0836 8.9133 10.7926 8.97118C10.5017 9.02906 10.2001 8.99935 9.92597 8.88582C9.65189 8.77229 9.41762 8.58003 9.2528 8.33336C9.08797 8.08668 9 7.79667 9 7.5C9 7.10218 9.15804 6.72064 9.43934 6.43934C9.72064 6.15804 10.1022 6 10.5 6ZM21 15.75H19.4062C19.241 15.1047 18.8657 14.5327 18.3395 14.1243C17.8133 13.7158 17.1661 13.4941 16.5 13.4941C15.8339 13.4941 15.1867 13.7158 14.6605 14.1243C14.1343 14.5327 13.759 15.1047 13.5938 15.75H4.5C4.30109 15.75 4.11032 15.829 3.96967 15.9697C3.82902 16.1103 3.75 16.3011 3.75 16.5C3.75 16.6989 3.82902 16.8897 3.96967 17.0303C4.11032 17.171 4.30109 17.25 4.5 17.25H13.5938C13.759 17.8953 14.1343 18.4673 14.6605 18.8757C15.1867 19.2842 15.8339 19.5059 16.5 19.5059C17.1661 19.5059 17.8133 19.2842 18.3395 18.8757C18.8657 18.4673 19.241 17.8953 19.4062 17.25H21C21.1989 17.25 21.3897 17.171 21.5303 17.0303C21.671 16.8897 21.75 16.6989 21.75 16.5C21.75 16.3011 21.671 16.1103 21.5303 15.9697C21.3897 15.829 21.1989 15.75 21 15.75ZM16.5 18C16.2033 18 15.9133 17.912 15.6666 17.7472C15.42 17.5824 15.2277 17.3481 15.1142 17.074C15.0006 16.7999 14.9709 16.4983 15.0288 16.2074C15.0867 15.9164 15.2296 15.6491 15.4393 15.4393C15.6491 15.2296 15.9164 15.0867 16.2074 15.0288C16.4983 14.9709 16.7999 15.0006 17.074 15.1142C17.3481 15.2277 17.5824 15.42 17.7472 15.6666C17.912 15.9133 18 16.2033 18 16.5C18 16.8978 17.842 17.2794 17.5607 17.5607C17.2794 17.842 16.8978 18 16.5 18Z" fill="#607085"/>
</svg>
