<svg width="18" height="19" viewBox="0 0 18 19" fill="none" xmlns="http://www.w3.org/2000/svg">
<path d="M8.75001 6.21946C8.10104 6.21946 7.46664 6.4119 6.92704 6.77245C6.38744 7.133 5.96688 7.64546 5.71853 8.24503C5.47018 8.8446 5.4052 9.50435 5.53181 10.1408C5.65841 10.7773 5.97092 11.362 6.42981 11.8209C6.8887 12.2798 7.47337 12.5923 8.10987 12.7189C8.74637 12.8455 9.40612 12.7805 10.0057 12.5322C10.6053 12.2838 11.1177 11.8633 11.4783 11.3237C11.8388 10.7841 12.0313 10.1497 12.0313 9.50071C12.0304 8.63074 11.6844 7.79667 11.0692 7.18151C10.454 6.56636 9.61997 6.22036 8.75001 6.21946ZM8.75001 11.6882C8.31736 11.6882 7.89443 11.5599 7.5347 11.3195C7.17496 11.0792 6.89459 10.7375 6.72902 10.3378C6.56345 9.93811 6.52013 9.49828 6.60454 9.07395C6.68894 8.64962 6.89728 8.25984 7.20321 7.95391C7.50914 7.64799 7.89891 7.43965 8.32325 7.35524C8.74758 7.27084 9.18741 7.31416 9.58713 7.47972C9.98684 7.64529 10.3285 7.92567 10.5688 8.2854C10.8092 8.64513 10.9375 9.06806 10.9375 9.50071C10.9375 10.0809 10.707 10.6373 10.2968 11.0475C9.88657 11.4577 9.33017 11.6882 8.75001 11.6882ZM16.2654 8.07952C16.2502 8.00251 16.2186 7.92968 16.1727 7.86598C16.1268 7.80229 16.0677 7.74922 15.9995 7.71038L13.9604 6.54827L13.9522 4.25003C13.9519 4.17087 13.9345 4.09272 13.9011 4.02096C13.8677 3.9492 13.8191 3.88555 13.7587 3.8344C13.019 3.20871 12.1672 2.72921 11.2485 2.42141C11.1762 2.39693 11.0995 2.38786 11.0235 2.39481C10.9474 2.40176 10.8737 2.42456 10.8069 2.46174L8.75001 3.61155L6.69102 2.45969C6.62427 2.4223 6.55042 2.39932 6.47423 2.39226C6.39805 2.38519 6.32123 2.39419 6.24874 2.41868C5.33077 2.72873 4.47993 3.21005 3.74132 3.83713C3.681 3.88821 3.63247 3.95175 3.59908 4.02339C3.56568 4.09502 3.54821 4.17304 3.54786 4.25208L3.53761 6.55237L1.49845 7.71448C1.43022 7.75332 1.37116 7.80639 1.32528 7.87008C1.27939 7.93378 1.24776 8.00661 1.23253 8.08362C1.0459 9.02143 1.0459 9.98682 1.23253 10.9246C1.24776 11.0016 1.27939 11.0745 1.32528 11.1382C1.37116 11.2019 1.43022 11.2549 1.49845 11.2938L3.53761 12.4559L3.54581 14.7541C3.54606 14.8333 3.56348 14.9114 3.59688 14.9832C3.63028 15.0549 3.67886 15.1186 3.73927 15.1698C4.47896 15.7954 5.33078 16.2749 6.24942 16.5827C6.32176 16.6072 6.39844 16.6163 6.47449 16.6093C6.55055 16.6024 6.62431 16.5796 6.69102 16.5424L8.75001 15.3899L10.809 16.5417C10.8905 16.5871 10.9823 16.6107 11.0756 16.6101C11.1353 16.6101 11.1946 16.6004 11.2513 16.5814C12.1691 16.2717 13.02 15.7909 13.7587 15.1643C13.819 15.1132 13.8675 15.0497 13.9009 14.978C13.9343 14.9064 13.9518 14.8284 13.9522 14.7493L13.9624 12.449L16.0016 11.2869C16.0698 11.2481 16.1289 11.195 16.1747 11.1313C16.2206 11.0676 16.2523 10.9948 16.2675 10.9178C16.4531 9.98074 16.4524 9.01631 16.2654 8.07952ZM15.24 10.4659L13.287 11.5768C13.2014 11.6254 13.1306 11.6963 13.0819 11.7819C13.0423 11.8502 13.0006 11.9227 12.9582 11.991C12.904 12.0772 12.8751 12.177 12.8748 12.2788L12.8646 14.4834C12.3396 14.8957 11.7548 15.2253 11.1303 15.461L9.16016 14.3631C9.07837 14.3179 8.98635 14.2943 8.89288 14.2948H8.87989C8.79717 14.2948 8.71378 14.2948 8.63106 14.2948C8.53323 14.2923 8.43651 14.3159 8.35079 14.3631L6.3793 15.4637C5.75348 15.2299 5.16704 14.9018 4.64024 14.4909L4.63272 12.2898C4.63239 12.1877 4.6035 12.0878 4.54932 12.0013C4.50694 11.9329 4.46524 11.8646 4.42628 11.7921C4.37796 11.7052 4.30712 11.633 4.2212 11.5829L2.26612 10.4694C2.16495 9.82939 2.16495 9.1775 2.26612 8.53753L4.21573 7.42463C4.3013 7.37598 4.37215 7.30513 4.42081 7.21956C4.46046 7.1512 4.50216 7.07874 4.54454 7.01038C4.59879 6.92417 4.62769 6.82444 4.62794 6.72258L4.63819 4.51799C5.16314 4.10575 5.74798 3.7761 6.37247 3.54046L8.33985 4.63831C8.42547 4.68577 8.52226 4.70938 8.62012 4.70667C8.70284 4.70667 8.78624 4.70667 8.86895 4.70667C8.96678 4.70911 9.06351 4.68552 9.14923 4.63831L11.1207 3.53772C11.7465 3.77156 12.333 4.09959 12.8598 4.51047L12.8673 6.71165C12.8676 6.8137 12.8965 6.91363 12.9507 7.00012C12.9931 7.06848 13.0348 7.13684 13.0737 7.2093C13.1221 7.2962 13.1929 7.36846 13.2788 7.41848L15.2339 8.53206C15.3364 9.17252 15.3376 9.82512 15.2373 10.4659H15.24Z" fill="#172230"/>
</svg>
