<svg width="24" height="24" viewBox="0 0 24 24" fill="none" xmlns="http://www.w3.org/2000/svg">
<path d="M11.8499 21.9249C8.9499 21.4916 6.6499 20.3706 4.9499 18.562C3.2499 16.7533 2.28324 14.291 2.0499 11.175C2.03324 10.9916 2.05424 10.829 2.1129 10.687C2.17157 10.545 2.25057 10.4243 2.3499 10.325C2.44924 10.2256 2.57024 10.1506 2.7129 10.1C2.85557 10.0493 3.00957 10.041 3.1749 10.075C6.2249 10.4916 8.5749 11.6666 10.2249 13.6C11.8749 15.5333 12.7916 17.95 12.9749 20.85C12.9916 21 12.9709 21.146 12.9129 21.288C12.8549 21.43 12.7672 21.5506 12.6499 21.65C12.5499 21.75 12.4289 21.8293 12.2869 21.888C12.1449 21.9466 11.9992 21.959 11.8499 21.9249ZM11.9999 12.625C11.7666 12.2583 11.2292 11.721 10.3879 11.013C9.54657 10.305 8.8339 9.83395 8.2499 9.59995C8.38324 8.76662 8.7209 7.71262 9.2629 6.43795C9.8049 5.16328 10.4506 4.00895 11.1999 2.97495C11.2999 2.84162 11.4209 2.74162 11.5629 2.67495C11.7049 2.60828 11.8506 2.57495 11.9999 2.57495C12.1492 2.57495 12.2909 2.60828 12.4249 2.67495C12.5589 2.74162 12.6756 2.84995 12.7749 2.99995C13.5249 4.04995 14.1792 5.19995 14.7379 6.44995C15.2966 7.69995 15.6339 8.74995 15.7499 9.59995C15.0999 9.89995 14.3749 10.3876 13.5749 11.063C12.7749 11.7383 12.2499 12.259 11.9999 12.625ZM14.9499 21.2C14.9166 20.1833 14.7626 19.0293 14.4879 17.738C14.2132 16.4466 13.7839 15.334 13.1999 14.4C13.9166 13.3 14.9792 12.35 16.3879 11.55C17.7966 10.75 19.2839 10.2583 20.8499 10.075C21.0166 10.0416 21.1666 10.0543 21.2999 10.113C21.4332 10.1716 21.5499 10.2506 21.6499 10.35C21.7499 10.4493 21.8292 10.566 21.8879 10.7C21.9466 10.834 21.9672 10.984 21.9499 11.15C21.8166 13.8333 21.0876 16.0126 19.7629 17.688C18.4382 19.3633 16.8339 20.534 14.9499 21.2Z" fill="white"/>
</svg>
