<svg width="16" height="16" viewBox="0 0 16 16" fill="none" xmlns="http://www.w3.org/2000/svg">
<path d="M10.6666 4.33316C10.6251 3.19151 10.4834 2.49989 9.99918 2.01658C9.31451 1.33316 8.21251 1.33316 6.00857 1.33316C3.80463 1.33316 2.70267 1.33316 2.01799 2.01658C1.33331 2.69999 1.33331 3.79994 1.33331 5.99983V9.99983C1.33331 12.1997 1.33331 13.2996 2.01799 13.9831C2.70267 14.6665 3.80463 14.6665 6.00857 14.6665C8.21251 14.6665 9.31451 14.6665 9.99918 13.9831C10.4834 13.4998 10.6251 12.8082 10.6666 11.6665" stroke="#607085" stroke-width="1.06667" stroke-linecap="round"/>
<path d="M5.33337 12.666H6.66671" stroke="#607085" stroke-width="1.06667" stroke-linecap="round" stroke-linejoin="round"/>
<path d="M10.6667 7.99371V7.99971M13.3656 10.994C14.1694 10.2262 14.6667 9.16558 14.6667 7.99398C14.6667 6.82245 14.1694 5.76175 13.3656 4.99399M12 6.49399C12.402 6.87785 12.6506 7.40818 12.6506 7.99398C12.6506 8.57978 12.402 9.11011 12 9.49398" stroke="#607085" stroke-width="1.06667" stroke-linecap="round"/>
<path d="M4 1.33316L4.05933 1.68917C4.18792 2.46069 4.25221 2.84645 4.51679 3.08119C4.79279 3.32605 5.18409 3.33316 6 3.33316C6.81593 3.33316 7.2072 3.32605 7.4832 3.08119C7.7478 2.84645 7.81207 2.46069 7.94067 1.68917L8 1.33316" stroke="#607085" stroke-width="1.06667" stroke-linejoin="round"/>
</svg>
